<svg width="415" height="97" viewBox="0 0 415 97" fill="none" xmlns="http://www.w3.org/2000/svg">
<g clip-path="url(#clip0_1144_319)">
<rect x="1" y="1" width="95" height="95" rx="26" fill="#818CF8"/>
<path d="M134.709 78.9668C129.26 78.9668 125.349 77.7217 122.976 75.2314C120.603 72.7412 119.416 69.5625 119.416 65.6953C119.416 62.502 119.973 59.1621 121.086 55.6758C122.229 52.1602 123.767 48.6738 125.7 45.2168C127.663 41.7305 129.89 38.3906 132.38 35.1973C134.899 31.9746 137.536 29.0596 140.29 26.4521C143.044 23.8154 145.783 21.6182 148.508 19.8604C151.057 18.2197 153.62 16.9307 156.198 15.9932C158.776 15.0557 161.311 14.5869 163.801 14.5869C166.291 14.5869 168.43 15.1729 170.217 16.3447C172.033 17.5166 172.941 19.5674 172.941 22.4971C172.941 23.6982 172.663 25.207 172.106 27.0234C171.579 28.8105 170.817 30.5977 169.821 32.3848C168.796 34.2305 167.565 35.7686 166.13 36.999C164.724 38.2002 163.2 38.8008 161.56 38.8008C160.974 38.8008 160.183 38.6689 159.187 38.4053C158.19 38.1416 157.692 37.4824 157.692 36.4277C157.692 36.0762 157.78 35.666 157.956 35.1973C158.161 34.7285 158.513 34.1865 159.011 33.5713C159.714 32.8096 160.461 31.8721 161.252 30.7588C162.043 29.6162 162.717 28.4443 163.273 27.2432C163.859 26.042 164.152 24.9873 164.152 24.0791C164.152 22.2041 163.273 21.2666 161.516 21.2666C160.256 21.2666 158.835 21.6768 157.253 22.4971C155.671 23.3174 154.016 24.4453 152.287 25.8809C150.529 27.3164 148.625 29.1621 146.574 31.418C144.553 33.6445 142.546 36.1201 140.554 38.8447C138.562 41.54 136.745 44.3232 135.104 47.1943C133.464 50.0654 132.146 52.8926 131.149 55.6758C130.183 58.4297 129.699 60.9639 129.699 63.2783C129.699 65.417 130.271 67.1309 131.413 68.4199C132.556 69.709 134.445 70.3535 137.082 70.3535C138.84 70.3535 140.744 69.9141 142.795 69.0352C144.875 68.1562 146.984 67.043 149.123 65.6953C151.291 64.3184 153.386 62.8975 155.407 61.4326C157.458 59.9678 159.333 58.6348 161.032 57.4336C162.761 56.2324 164.226 55.3682 165.427 54.8408C165.544 54.7236 165.72 54.665 165.954 54.665C166.394 54.665 166.701 55.0166 166.877 55.7197C167.023 56.54 167.097 57.3604 167.097 58.1807C167.097 58.6787 167.023 59.2939 166.877 60.0264C166.76 60.7295 166.35 61.5498 165.646 62.4873C163.742 64.7725 161.501 66.9111 158.923 68.9033C156.345 70.8955 153.635 72.6533 150.793 74.1768C147.951 75.6709 145.139 76.8428 142.355 77.6924C139.602 78.542 137.053 78.9668 134.709 78.9668ZM170.173 79.0986C169.177 79.0986 167.99 78.8203 166.613 78.2637C165.236 77.707 164.021 76.7842 162.966 75.4951C161.94 74.2061 161.428 72.4775 161.428 70.3096C161.428 68.4932 161.838 66.2227 162.658 63.498C163.479 60.7734 164.768 58.0928 166.525 55.4561C168.283 52.7607 170.524 50.5195 173.249 48.7324C176.003 46.9453 179.182 46.0518 182.785 46.0518C184.074 46.0518 185.202 46.2129 186.169 46.5352C187.136 46.8574 187.956 47.209 188.63 47.5898C189.011 47.8242 189.362 48.0732 189.685 48.3369C190.036 48.5713 190.358 48.835 190.651 49.1279L192.189 48.3809C192.629 48.1758 193.083 48 193.552 47.8535C194.05 47.6777 194.475 47.5898 194.826 47.5898C195.939 47.5898 196.848 47.8975 197.551 48.5127C198.254 49.1279 198.605 49.8018 198.605 50.5342C198.605 50.7686 198.591 50.9297 198.562 51.0176C198.356 51.8379 197.976 52.9658 197.419 54.4014C196.892 55.8369 196.32 57.4336 195.705 59.1914C195.09 60.8906 194.562 62.5312 194.123 64.1133C193.713 65.6953 193.508 66.999 193.508 68.0244C193.508 68.9033 193.654 69.6357 193.947 70.2217C194.24 70.7783 194.738 71.0566 195.441 71.0566C196.291 71.0566 197.434 70.5732 198.869 69.6064C200.305 68.6104 201.784 67.4385 203.308 66.0908C204.128 65.3584 204.978 64.582 205.856 63.7617C206.735 62.9121 207.629 62.0186 208.537 61.0811C209.006 60.7002 209.46 60.5098 209.899 60.5098C210.485 60.5098 210.969 60.8027 211.35 61.3887C211.76 61.9453 211.965 62.5752 211.965 63.2783C211.965 64.0986 211.687 64.7871 211.13 65.3438C209.958 66.4277 208.757 67.585 207.526 68.8154C206.296 70.0459 204.597 71.5547 202.429 73.3418C200.495 74.9238 198.503 76.2861 196.452 77.4287C194.401 78.542 192.556 79.0986 190.915 79.0986C188.864 79.0986 187.37 78.3076 186.433 76.7256C185.495 75.1143 185.026 73.4004 185.026 71.584C185.026 70.2656 185.217 69.0938 185.598 68.0684C184.396 69.6797 182.976 71.3496 181.335 73.0781C179.694 74.7773 177.922 76.2129 176.018 77.3848C174.113 78.5273 172.165 79.0986 170.173 79.0986ZM173.688 71.3643C174.626 71.3643 175.798 70.7637 177.204 69.5625C178.64 68.3613 180.017 66.9551 181.335 65.3438C182.8 63.5859 183.957 61.9893 184.807 60.5537C185.656 59.1182 186.081 58.1514 186.081 57.6533C186.081 56.54 185.437 55.6611 184.147 55.0166C182.858 54.3428 181.701 54.0059 180.676 54.0059C178.859 54.0059 177.131 54.5918 175.49 55.7637C173.879 56.9355 172.561 58.4443 171.535 60.29C170.51 62.1064 169.997 63.9961 169.997 65.959C169.997 67.1016 170.202 68.2881 170.612 69.5186C171.052 70.749 172.077 71.3643 173.688 71.3643ZM205.988 79.0986C204.963 79.0986 204.157 78.7764 203.571 78.1318C202.985 77.4873 202.692 76.6963 202.692 75.7588C202.692 74.9971 203.132 73.5762 204.011 71.4961C204.89 69.3867 205.915 67.1309 207.087 64.7285C208.581 61.5938 209.899 58.8838 211.042 56.5986C212.185 54.2842 213.034 52.5264 213.591 51.3252C214.177 50.0654 214.909 49.1279 215.788 48.5127C216.667 47.8975 217.531 47.5898 218.381 47.5898C219.084 47.5898 219.714 47.8535 220.271 48.3809C220.827 48.8789 221.105 49.626 221.105 50.6221C221.105 51.0029 221.062 51.4131 220.974 51.8525C220.886 52.292 220.725 52.7607 220.49 53.2588C221.398 52.1162 222.746 51.0029 224.533 49.9189C226.32 48.8057 228.254 47.8828 230.334 47.1504C232.414 46.418 234.333 46.0518 236.091 46.0518C237.644 46.0518 238.933 46.4326 239.958 47.1943C241.013 47.9268 241.54 49.1865 241.54 50.9736C241.54 52.4971 241.203 54.1523 240.529 55.9395C239.855 57.6973 239.05 59.3965 238.112 61.0371C237.116 62.7656 236.179 64.2891 235.3 65.6074C234.45 66.8965 233.791 67.9658 233.322 68.8154C232.941 69.2842 232.751 69.8262 232.751 70.4414C232.751 71.0273 233.059 71.3203 233.674 71.3203C233.879 71.3203 234.113 71.3057 234.377 71.2764C234.641 71.2178 234.963 71.0566 235.344 70.793C237.541 69.9727 239.724 68.9326 241.892 67.6729C244.089 66.4131 246.096 65.1094 247.912 63.7617C249.758 62.4141 251.237 61.2275 252.351 60.2021C252.819 59.8213 253.273 59.6309 253.713 59.6309C254.768 59.6309 255.295 60.3047 255.295 61.6523C255.295 62.5605 255.002 63.5713 254.416 64.6846C253.859 65.7979 252.966 66.8379 251.735 67.8047C249.597 69.3281 247.59 70.749 245.715 72.0674C243.869 73.3564 241.906 74.5283 239.826 75.583C237.746 76.6377 235.271 77.5752 232.399 78.3955C230.905 78.8643 229.631 79.0986 228.576 79.0986C225.588 79.0986 224.094 77.458 224.094 74.1768C224.094 73.9717 224.094 73.7812 224.094 73.6055C224.123 73.4004 224.152 73.1807 224.182 72.9463C224.27 71.6279 224.738 70.1045 225.588 68.376C226.438 66.6182 227.36 64.8896 228.356 63.1904C229.353 61.5498 230.246 60.0117 231.037 58.5762C231.828 57.1406 232.224 56.0713 232.224 55.3682C232.224 54.3135 231.726 53.7861 230.729 53.7861C228.884 53.7861 227.111 54.3281 225.412 55.4121C223.742 56.4961 222.16 57.873 220.666 59.543C219.201 61.1836 217.854 62.9121 216.623 64.7285C215.393 66.5156 214.309 68.1416 213.371 69.6064C212.697 70.7197 212.038 72.0234 211.394 73.5176C210.778 75.0117 210.046 76.3154 209.196 77.4287C208.376 78.542 207.307 79.0986 205.988 79.0986ZM254.855 79.0986C252.805 79.0986 251.003 78.3662 249.45 76.9014C247.897 75.4072 247.121 73.2393 247.121 70.3975C247.121 68.083 247.443 65.5635 248.088 62.8389C248.732 60.085 249.45 57.5068 250.241 55.1045C251.032 52.6729 251.647 50.7979 252.087 49.4795C252.673 48.249 253.405 47.3701 254.284 46.8428C255.192 46.2861 256.071 46.0078 256.921 46.0078C257.683 46.0078 258.43 46.2568 259.162 46.7549C259.895 47.2529 260.261 47.8828 260.261 48.6445C260.261 48.9961 260.202 49.2744 260.085 49.4795C259.499 51.3838 258.796 53.4639 257.976 55.7197C257.185 57.9463 256.481 60.1582 255.866 62.3555C255.251 64.5527 254.943 66.5449 254.943 68.332C254.943 68.7715 255.046 69.3721 255.251 70.1338C255.456 70.8662 255.734 71.2324 256.086 71.2324C256.848 71.2324 257.697 70.8076 258.635 69.958C259.572 69.1084 260.598 67.9365 261.711 66.4424C263.117 64.9775 264.436 63.1025 265.666 60.8174C266.926 58.5029 268.098 56.291 269.182 54.1816C270.236 52.1016 271.276 50.3291 272.302 48.8643C273.327 47.3701 274.353 46.623 275.378 46.623C276.579 46.623 277.429 47.0186 277.927 47.8096C278.425 48.5713 278.674 49.4941 278.674 50.5781C278.674 52.2188 278.293 53.7861 277.531 55.2803C276.77 56.7744 275.803 58.3418 274.631 59.9824C273.488 61.623 272.302 63.4834 271.071 65.5635C271.569 66.1787 272.302 66.4863 273.269 66.4863C275.466 66.4863 277.692 65.9736 279.948 64.9482C282.204 63.8936 284.357 62.5605 286.408 60.9492C286.848 60.6855 287.258 60.5537 287.639 60.5537C288.166 60.5537 288.591 60.7881 288.913 61.2568C289.265 61.7256 289.44 62.3262 289.44 63.0586C289.44 63.8496 289.206 64.7139 288.737 65.6514C288.269 66.5596 287.492 67.3945 286.408 68.1562C284.211 69.8262 282.014 71.1445 279.816 72.1113C277.619 73.0488 275.188 73.5176 272.521 73.5176C271.643 73.5176 270.793 73.3564 269.973 73.0342C269.152 72.7119 268.083 72.1406 266.765 71.3203C264.831 73.8691 262.883 75.8027 260.92 77.1211C258.986 78.4395 256.965 79.0986 254.855 79.0986ZM290.407 79.0986C289.411 79.0986 288.225 78.8203 286.848 78.2637C285.471 77.707 284.255 76.7842 283.2 75.4951C282.175 74.2061 281.662 72.4775 281.662 70.3096C281.662 68.4932 282.072 66.2227 282.893 63.498C283.713 60.7734 285.002 58.0928 286.76 55.4561C288.518 52.7607 290.759 50.5195 293.483 48.7324C296.237 46.9453 299.416 46.0518 303.02 46.0518C304.309 46.0518 305.437 46.2129 306.403 46.5352C307.37 46.8574 308.19 47.209 308.864 47.5898C309.245 47.8242 309.597 48.0732 309.919 48.3369C310.271 48.5713 310.593 48.835 310.886 49.1279L312.424 48.3809C312.863 48.1758 313.317 48 313.786 47.8535C314.284 47.6777 314.709 47.5898 315.061 47.5898C316.174 47.5898 317.082 47.8975 317.785 48.5127C318.488 49.1279 318.84 49.8018 318.84 50.5342C318.84 50.7686 318.825 50.9297 318.796 51.0176C318.591 51.8379 318.21 52.9658 317.653 54.4014C317.126 55.8369 316.555 57.4336 315.939 59.1914C315.324 60.8906 314.797 62.5312 314.357 64.1133C313.947 65.6953 313.742 66.999 313.742 68.0244C313.742 68.9033 313.889 69.6357 314.182 70.2217C314.475 70.7783 314.973 71.0566 315.676 71.0566C316.525 71.0566 317.668 70.5732 319.104 69.6064C320.539 68.6104 322.019 67.4385 323.542 66.0908C324.362 65.3584 325.212 64.582 326.091 63.7617C326.97 62.9121 327.863 62.0186 328.771 61.0811C329.24 60.7002 329.694 60.5098 330.134 60.5098C330.72 60.5098 331.203 60.8027 331.584 61.3887C331.994 61.9453 332.199 62.5752 332.199 63.2783C332.199 64.0986 331.921 64.7871 331.364 65.3438C330.192 66.4277 328.991 67.585 327.761 68.8154C326.53 70.0459 324.831 71.5547 322.663 73.3418C320.729 74.9238 318.737 76.2861 316.687 77.4287C314.636 78.542 312.79 79.0986 311.149 79.0986C309.099 79.0986 307.604 78.3076 306.667 76.7256C305.729 75.1143 305.261 73.4004 305.261 71.584C305.261 70.2656 305.451 69.0938 305.832 68.0684C304.631 69.6797 303.21 71.3496 301.569 73.0781C299.929 74.7773 298.156 76.2129 296.252 77.3848C294.348 78.5273 292.399 79.0986 290.407 79.0986ZM293.923 71.3643C294.86 71.3643 296.032 70.7637 297.438 69.5625C298.874 68.3613 300.251 66.9551 301.569 65.3438C303.034 63.5859 304.191 61.9893 305.041 60.5537C305.891 59.1182 306.315 58.1514 306.315 57.6533C306.315 56.54 305.671 55.6611 304.382 55.0166C303.093 54.3428 301.936 54.0059 300.91 54.0059C299.094 54.0059 297.365 54.5918 295.725 55.7637C294.113 56.9355 292.795 58.4443 291.77 60.29C290.744 62.1064 290.231 63.9961 290.231 65.959C290.231 67.1016 290.437 68.2881 290.847 69.5186C291.286 70.749 292.312 71.3643 293.923 71.3643ZM324.377 79.0986C322.912 79.0986 322.18 78.3516 322.18 76.8574C322.18 76.5352 322.224 76.1396 322.312 75.6709C322.429 75.1729 322.648 74.6309 322.971 74.0449C323.469 73.1074 324.011 72.0088 324.597 70.749C325.183 69.46 325.798 68.127 326.442 66.75C327.146 65.2559 327.951 63.542 328.859 61.6084C329.797 59.6455 330.896 57.3896 332.155 54.8408C331.745 54.4893 331.394 54.0645 331.101 53.5664C330.837 53.0391 330.705 52.3945 330.705 51.6328C330.705 50.2559 331.232 49.2451 332.287 48.6006C333.371 47.9268 334.66 47.5898 336.154 47.5898C337.619 47.5898 339.04 47.8535 340.417 48.3809C341.823 48.8789 342.526 49.6406 342.526 50.666C342.526 50.7832 342.424 51.0615 342.219 51.501C342.043 51.9111 341.955 52.1895 341.955 52.3359C341.955 52.3945 341.97 52.4238 341.999 52.4238H342.043L342.131 52.3799C344.299 51.0322 346.628 49.8896 349.118 48.9521C351.608 48.0146 353.659 47.5459 355.271 47.5459C356.589 47.5459 357.6 47.8682 358.303 48.5127C359.035 49.1279 359.401 50.1826 359.401 51.6768C359.401 51.999 359.387 52.3506 359.357 52.7314C359.328 53.083 359.27 53.4639 359.182 53.874C358.977 54.958 358.156 56.3643 356.721 58.0928C355.285 59.8213 353.762 61.4912 352.15 63.1025C351.418 63.835 350.539 64.7139 349.514 65.7393C348.488 66.7354 347.595 67.6582 346.833 68.5078C346.071 69.3281 345.69 69.8848 345.69 70.1777C345.69 70.5879 345.837 70.793 346.13 70.793C348.239 69.8848 350.627 68.7715 353.293 67.4531C355.959 66.1055 358.537 64.7578 361.027 63.4102C363.518 62.0625 365.554 60.9346 367.136 60.0264C367.751 59.6748 368.278 59.499 368.718 59.499C369.948 59.499 370.563 60.1436 370.563 61.4326C370.563 62.1064 370.271 62.8828 369.685 63.7617C369.128 64.6113 368.176 65.5049 366.828 66.4424C365.568 67.2334 363.84 68.332 361.643 69.7383C359.475 71.1152 357.321 72.4189 355.183 73.6494C353.073 74.8506 351.052 75.876 349.118 76.7256C347.214 77.5752 345.617 78 344.328 78C342.307 78 340.783 77.5166 339.758 76.5498C338.762 75.583 338.264 74.3379 338.264 72.8145C338.264 72.5508 338.278 72.375 338.308 72.2871C338.63 70.4121 339.304 68.5957 340.329 66.8379C341.354 65.0801 342.424 63.4688 343.537 62.0039C344.65 60.5684 345.632 59.2354 346.481 58.0049C347.36 56.7744 347.8 55.7197 347.8 54.8408C347.8 54.4014 347.639 54.1816 347.316 54.1816C346.848 54.1816 345.998 54.416 344.768 54.8848C343.537 55.3242 342.321 55.9102 341.12 56.6426C339.919 57.375 339.099 58.1514 338.659 58.9717C338.073 59.9971 337.326 61.4326 336.418 63.2783C335.539 65.0947 334.66 66.9551 333.781 68.8594C332.932 70.7637 332.214 72.3457 331.628 73.6055C330.983 75.2168 329.914 76.5352 328.42 77.5605C326.955 78.5859 325.607 79.0986 324.377 79.0986ZM370.739 79.0986C369.743 79.0986 368.557 78.8203 367.18 78.2637C365.803 77.707 364.587 76.7842 363.532 75.4951C362.507 74.2061 361.994 72.4775 361.994 70.3096C361.994 68.4932 362.404 66.2227 363.225 63.498C364.045 60.7734 365.334 58.0928 367.092 55.4561C368.85 52.7607 371.091 50.5195 373.815 48.7324C376.569 46.9453 379.748 46.0518 383.352 46.0518C384.641 46.0518 385.769 46.2129 386.735 46.5352C387.702 46.8574 388.522 47.209 389.196 47.5898C389.577 47.8242 389.929 48.0732 390.251 48.3369C390.603 48.5713 390.925 48.835 391.218 49.1279L392.756 48.3809C393.195 48.1758 393.649 48 394.118 47.8535C394.616 47.6777 395.041 47.5898 395.393 47.5898C396.506 47.5898 397.414 47.8975 398.117 48.5127C398.82 49.1279 399.172 49.8018 399.172 50.5342C399.172 50.7686 399.157 50.9297 399.128 51.0176C398.923 51.8379 398.542 52.9658 397.985 54.4014C397.458 55.8369 396.887 57.4336 396.271 59.1914C395.656 60.8906 395.129 62.5312 394.689 64.1133C394.279 65.6953 394.074 66.999 394.074 68.0244C394.074 68.9033 394.221 69.6357 394.514 70.2217C394.807 70.7783 395.305 71.0566 396.008 71.0566C396.857 71.0566 398 70.5732 399.436 69.6064C400.871 68.6104 402.351 67.4385 403.874 66.0908C404.694 65.3584 405.544 64.582 406.423 63.7617C407.302 62.9121 408.195 62.0186 409.104 61.0811C409.572 60.7002 410.026 60.5098 410.466 60.5098C411.052 60.5098 411.535 60.8027 411.916 61.3887C412.326 61.9453 412.531 62.5752 412.531 63.2783C412.531 64.0986 412.253 64.7871 411.696 65.3438C410.524 66.4277 409.323 67.585 408.093 68.8154C406.862 70.0459 405.163 71.5547 402.995 73.3418C401.062 74.9238 399.069 76.2861 397.019 77.4287C394.968 78.542 393.122 79.0986 391.481 79.0986C389.431 79.0986 387.937 78.3076 386.999 76.7256C386.062 75.1143 385.593 73.4004 385.593 71.584C385.593 70.2656 385.783 69.0938 386.164 68.0684C384.963 69.6797 383.542 71.3496 381.901 73.0781C380.261 74.7773 378.488 76.2129 376.584 77.3848C374.68 78.5273 372.731 79.0986 370.739 79.0986ZM374.255 71.3643C375.192 71.3643 376.364 70.7637 377.771 69.5625C379.206 68.3613 380.583 66.9551 381.901 65.3438C383.366 63.5859 384.523 61.9893 385.373 60.5537C386.223 59.1182 386.647 58.1514 386.647 57.6533C386.647 56.54 386.003 55.6611 384.714 55.0166C383.425 54.3428 382.268 54.0059 381.242 54.0059C379.426 54.0059 377.697 54.5918 376.057 55.7637C374.445 56.9355 373.127 58.4443 372.102 60.29C371.076 62.1064 370.563 63.9961 370.563 65.959C370.563 67.1016 370.769 68.2881 371.179 69.5186C371.618 70.749 372.644 71.3643 374.255 71.3643Z" fill="#272727"/>
<path d="M79.2656 24.0088C76.3891 24.1828 70.1403 24.8841 66.4201 26.0205C64.148 26.7145 61.2207 28.027 57.6521 30.0901C54.0835 32.1532 49.9941 35.0245 47.1914 37.3737C42.7017 41.1369 41.1273 43.952 40.2071 45.3111C39.7465 45.9915 39.1999 46.5833 37.7129 49.0287C36.2258 51.4742 33.7896 55.7375 31.9691 59.326C27.765 68.9152 27.5014 70.0569 27.3695 70.9771C27.3247 71.4622 27.3247 71.9842 27.3247 72.5221" stroke="white" stroke-width="6" stroke-linecap="round"/>
<path d="M52.3724 17.9453C52.1113 18.47 51.2333 19.522 50.267 20.665C49.6559 21.3878 48.254 24.5974 45.7993 31.2074C44.3708 35.0541 43.3447 40.1665 42.6736 45.8985C42.0026 51.6304 41.9156 57.895 41.9143 61.5137C41.9122 67.255 42.965 70.3924 43.6255 72.8234C43.8456 73.8305 44.1963 74.8904 44.5918 75.8119C44.7262 76.2114 44.7262 76.4724 44.9899 77.005" stroke="white" stroke-width="6" stroke-linecap="round"/>
<path d="M55.0089 44.0469C54.6609 45.0066 53.9543 46.9419 53.7355 48.0413C53.485 49.2995 53.427 53.6757 54.1705 58.2726C54.5552 60.6509 55.6206 62.4978 56.7623 64.4291C57.2026 65.1343 57.6429 65.5773 58.2559 66.0585C58.6079 66.3656 59.0429 66.8007 59.4912 67.2489" stroke="white" stroke-width="6" stroke-linecap="round"/>
<path d="M19.6294 41.5779C20.4042 40.9973 21.5634 39.8381 22.5713 39.1846C23.5737 38.5347 24.4801 38.0205 25.2578 37.5341C25.9621 37.0935 26.9384 36.9836 28.0074 36.7243C28.62 36.5952 29.2065 36.4651 29.9473 36.368C30.4317 36.335 31.1366 36.335 32.057 36.5292" stroke="white" stroke-width="6" stroke-linecap="round"/>
</g>
<defs>
<clipPath id="clip0_1144_319">
<rect width="415" height="97" fill="white"/>
</clipPath>
</defs>
</svg>
